<svg width="392" height="394" viewBox="0 0 392 394" fill="none" xmlns="http://www.w3.org/2000/svg">
<path d="M334.874 57.328C316.815 39.0844 295.304 24.6196 271.596 14.7771C247.888 4.93472 222.457 -0.088258 196.788 0.00117352C89.2342 0.00117352 1.57588 87.6659 1.57588 195.228C1.57588 229.702 10.6372 263.192 27.5779 292.742L0 394L103.417 366.814C131.98 382.377 164.088 390.651 196.788 390.651C304.342 390.651 392 302.986 392 195.425C392 143.22 371.711 94.1669 334.874 57.328ZM196.788 357.555C167.634 357.555 139.071 349.675 114.054 334.9L108.145 331.354L46.6854 347.508L63.0352 287.62L59.0955 281.513C42.8983 255.647 34.2978 225.748 34.2754 195.228C34.2754 105.79 107.16 32.9001 196.591 32.9001C239.928 32.9001 280.703 49.842 311.236 80.5739C326.354 95.624 338.335 113.525 346.484 133.24C354.634 152.955 358.789 174.092 358.71 195.425C359.103 284.862 286.219 357.555 196.788 357.555ZM285.825 236.203C280.9 233.839 256.868 222.02 252.535 220.247C248.004 218.671 244.852 217.883 241.503 222.611C238.155 227.535 228.896 238.567 226.139 241.719C223.381 245.068 220.426 245.462 215.501 242.901C210.577 240.537 194.818 235.218 176.301 218.671C161.725 205.669 152.072 189.712 149.118 184.787C146.36 179.862 148.724 177.301 151.284 174.74C153.451 172.573 156.209 169.027 158.573 166.269C160.937 163.511 161.922 161.344 163.497 158.192C165.073 154.843 164.285 152.085 163.103 149.721C161.922 147.357 152.072 123.323 148.133 113.473C144.193 104.017 140.056 105.199 137.101 105.002H127.646C124.297 105.002 119.176 106.184 114.645 111.109C110.312 116.034 97.7045 127.854 97.7045 151.888C97.7045 175.922 115.236 199.168 117.6 202.32C119.964 205.669 152.072 254.918 200.925 275.997C212.547 281.119 221.608 284.074 228.699 286.241C240.322 289.984 250.959 289.393 259.429 288.211C268.884 286.832 288.386 276.391 292.326 264.965C296.462 253.539 296.462 243.886 295.083 241.719C293.704 239.552 290.75 238.567 285.825 236.203Z" fill="white"/>
</svg>
